<svg width="68" height="16" viewBox="0 0 68 16" fill="none" xmlns="http://www.w3.org/2000/svg">
<path d="M8.125 6.02344V10.7109C7.96354 10.8828 7.72656 11.0833 7.41406 11.3125C7.10677 11.5365 6.70312 11.7344 6.20312 11.9062C5.70833 12.0729 5.10417 12.1562 4.39062 12.1562C3.76042 12.1562 3.1875 12.0573 2.67188 11.8594C2.16146 11.6615 1.72135 11.362 1.35156 10.9609C0.986979 10.5547 0.708333 10.0495 0.515625 9.44531C0.322917 8.83594 0.226562 8.11458 0.226562 7.28125V5.34375C0.226562 4.52083 0.317708 3.80469 0.5 3.19531C0.6875 2.58073 0.958333 2.07031 1.3125 1.66406C1.66667 1.25781 2.08854 0.955729 2.57812 0.757812C3.07292 0.559896 3.63021 0.460938 4.25 0.460938C5.10417 0.460938 5.80469 0.604167 6.35156 0.890625C6.90365 1.17708 7.32031 1.60156 7.60156 2.16406C7.88802 2.72656 8.0599 3.41667 8.11719 4.23438H5.90625C5.86979 3.75521 5.78906 3.38021 5.66406 3.10938C5.54427 2.83854 5.375 2.64583 5.15625 2.53125C4.9375 2.41146 4.65365 2.35156 4.30469 2.35156C4.0026 2.35156 3.73958 2.40625 3.51562 2.51562C3.29167 2.61979 3.10417 2.79167 2.95312 3.03125C2.80208 3.27083 2.6901 3.57812 2.61719 3.95312C2.54427 4.32812 2.50781 4.78646 2.50781 5.32812V7.28125C2.50781 7.81771 2.54948 8.27604 2.63281 8.65625C2.71615 9.03646 2.83854 9.34635 3 9.58594C3.16667 9.82552 3.375 10 3.625 10.1094C3.88021 10.2135 4.17969 10.2656 4.52344 10.2656C4.79948 10.2656 5.02083 10.237 5.1875 10.1797C5.35417 10.1224 5.48698 10.0625 5.58594 10C5.6901 9.93229 5.77604 9.88021 5.84375 9.84375V7.75H4.21094V6.02344H8.125ZM11.7891 11.0312L13.5547 3.54688H15.8359L13.0547 13.2656C12.9922 13.4792 12.9062 13.7083 12.7969 13.9531C12.6875 14.2031 12.5417 14.4375 12.3594 14.6562C12.1823 14.8802 11.9583 15.0625 11.6875 15.2031C11.4167 15.3438 11.0911 15.4141 10.7109 15.4141C10.5182 15.4141 10.362 15.401 10.2422 15.375C10.1276 15.3542 9.98177 15.3177 9.80469 15.2656V13.5625C9.85156 13.5625 9.89583 13.5625 9.9375 13.5625C9.98438 13.5677 10.0286 13.5703 10.0703 13.5703C10.3151 13.5703 10.5104 13.5365 10.6562 13.4688C10.8021 13.4062 10.9193 13.3073 11.0078 13.1719C11.1016 13.0365 11.1797 12.8672 11.2422 12.6641L11.7891 11.0312ZM11.3359 3.54688L12.6484 9.60938L12.9453 12.0781L11.4688 12.2188L8.99219 3.54688H11.3359ZM18.9922 5.29688V12H16.7969V3.54688H18.8516L18.9922 5.29688ZM18.6875 7.48438L18.0781 7.5C18.0677 6.90625 18.1198 6.35938 18.2344 5.85938C18.349 5.35938 18.5208 4.92448 18.75 4.55469C18.9844 4.1849 19.2786 3.89844 19.6328 3.69531C19.9922 3.49219 20.4062 3.39062 20.875 3.39062C21.1771 3.39062 21.4583 3.44792 21.7188 3.5625C21.9844 3.67188 22.2109 3.84635 22.3984 4.08594C22.5911 4.32031 22.7396 4.6276 22.8438 5.00781C22.9479 5.38281 23 5.83333 23 6.35938V12H20.8203V6.625C20.8203 6.25 20.7839 5.96354 20.7109 5.76562C20.638 5.5625 20.5339 5.42188 20.3984 5.34375C20.263 5.26042 20.0964 5.21875 19.8984 5.21875C19.6901 5.21875 19.5078 5.27604 19.3516 5.39062C19.1953 5.50521 19.0677 5.66667 18.9688 5.875C18.875 6.07812 18.8021 6.31771 18.75 6.59375C18.7031 6.86979 18.6823 7.16667 18.6875 7.48438ZM22.7969 7.26562L22.0156 7.36719C22 6.8099 22.0469 6.28906 22.1562 5.80469C22.2656 5.32031 22.4349 4.89844 22.6641 4.53906C22.8932 4.17969 23.1797 3.89844 23.5234 3.69531C23.8724 3.49219 24.276 3.39062 24.7344 3.39062C25.0781 3.39062 25.3906 3.44792 25.6719 3.5625C25.9531 3.67708 26.1927 3.86198 26.3906 4.11719C26.5938 4.36719 26.7474 4.69792 26.8516 5.10938C26.9609 5.51562 27.0156 6.01562 27.0156 6.60938V12H24.8203V6.61719C24.8203 6.23698 24.7839 5.94531 24.7109 5.74219C24.6432 5.53906 24.5417 5.40104 24.4062 5.32812C24.2708 5.25521 24.1068 5.21875 23.9141 5.21875C23.7266 5.21875 23.5625 5.27083 23.4219 5.375C23.2865 5.47917 23.1719 5.625 23.0781 5.8125C22.9844 6 22.9141 6.21615 22.8672 6.46094C22.8203 6.70573 22.7969 6.97396 22.7969 7.26562ZM34.7812 10.2969L36.6016 0.625H37.8047L38.1641 2.125L36.2109 12H34.9062L34.7812 10.2969ZM34.1562 0.625L35.625 10.3203L35.375 12H33.9375L31.8984 0.625H34.1562ZM39.4844 10.2812L40.9453 0.625H43.1953L41.1719 12H39.7266L39.4844 10.2812ZM38.5 0.625L40.3359 10.3516L40.1875 12H38.8828L36.9375 2.10938L37.3047 0.625H38.5ZM43.8516 8.0625V7.49219C43.8516 6.83073 43.9297 6.24479 44.0859 5.73438C44.2474 5.22396 44.4766 4.79688 44.7734 4.45312C45.0703 4.10417 45.4271 3.84115 45.8438 3.66406C46.2656 3.48177 46.737 3.39062 47.2578 3.39062C47.7839 3.39062 48.2552 3.48177 48.6719 3.66406C49.0938 3.84115 49.4531 4.10417 49.75 4.45312C50.0521 4.79688 50.2839 5.22396 50.4453 5.73438C50.6068 6.24479 50.6875 6.83073 50.6875 7.49219V8.0625C50.6875 8.71875 50.6068 9.30208 50.4453 9.8125C50.2839 10.3229 50.0521 10.7526 49.75 11.1016C49.4531 11.4505 49.0964 11.7135 48.6797 11.8906C48.263 12.0677 47.7943 12.1562 47.2734 12.1562C46.7526 12.1562 46.2812 12.0677 45.8594 11.8906C45.4427 11.7135 45.0833 11.4505 44.7812 11.1016C44.4792 10.7526 44.2474 10.3229 44.0859 9.8125C43.9297 9.30208 43.8516 8.71875 43.8516 8.0625ZM46.0391 7.49219V8.0625C46.0391 8.45312 46.0651 8.79167 46.1172 9.07812C46.1745 9.36458 46.2552 9.60156 46.3594 9.78906C46.4688 9.97656 46.599 10.1146 46.75 10.2031C46.901 10.2917 47.0755 10.3359 47.2734 10.3359C47.4714 10.3359 47.6484 10.2917 47.8047 10.2031C47.9609 10.1146 48.0885 9.97656 48.1875 9.78906C48.2917 9.60156 48.3672 9.36458 48.4141 9.07812C48.4661 8.79167 48.4922 8.45312 48.4922 8.0625V7.49219C48.4922 7.11198 48.4635 6.77865 48.4062 6.49219C48.349 6.20052 48.2682 5.96354 48.1641 5.78125C48.0599 5.59375 47.9297 5.45312 47.7734 5.35938C47.6224 5.26042 47.4505 5.21094 47.2578 5.21094C47.0651 5.21094 46.8932 5.26042 46.7422 5.35938C46.5964 5.45312 46.4688 5.59375 46.3594 5.78125C46.2552 5.96354 46.1745 6.20052 46.1172 6.49219C46.0651 6.77865 46.0391 7.11198 46.0391 7.49219ZM54.2578 5.42969V12H52.0703V3.54688H54.1328L54.2578 5.42969ZM56.25 3.48438L56.2188 5.66406C56.1198 5.64323 56 5.6276 55.8594 5.61719C55.724 5.60677 55.6042 5.60156 55.5 5.60156C55.2552 5.60156 55.0469 5.64062 54.875 5.71875C54.7031 5.79167 54.5599 5.90365 54.4453 6.05469C54.3359 6.20052 54.2526 6.38281 54.1953 6.60156C54.138 6.82031 54.1042 7.06771 54.0938 7.34375L53.6797 7.1875C53.6797 6.63542 53.7214 6.13021 53.8047 5.67188C53.8932 5.20833 54.0234 4.80729 54.1953 4.46875C54.3672 4.125 54.5729 3.85938 54.8125 3.67188C55.0573 3.48438 55.3333 3.39062 55.6406 3.39062C55.7448 3.39062 55.8542 3.40104 55.9688 3.42188C56.0885 3.4375 56.1823 3.45833 56.25 3.48438ZM59.6641 0V12H57.4688V0H59.6641ZM65.4922 10.1328V0H67.6875V12L65.7031 12.0078L65.4922 10.1328ZM61.1094 8.07031V7.50781C61.1094 6.82031 61.1667 6.21875 61.2812 5.70312C61.401 5.1875 61.5781 4.75781 61.8125 4.41406C62.0469 4.07031 62.3333 3.8151 62.6719 3.64844C63.0156 3.47656 63.4089 3.39062 63.8516 3.39062C64.2526 3.39062 64.6042 3.49219 64.9062 3.69531C65.2135 3.89323 65.474 4.17188 65.6875 4.53125C65.901 4.89062 66.0729 5.3151 66.2031 5.80469C66.3333 6.29427 66.4245 6.83073 66.4766 7.41406V8.22656C66.4141 8.77865 66.3177 9.29427 66.1875 9.77344C66.0625 10.2526 65.8906 10.6693 65.6719 11.0234C65.4583 11.3776 65.2005 11.6562 64.8984 11.8594C64.5964 12.0573 64.2448 12.1562 63.8438 12.1562C63.401 12.1562 63.0078 12.0677 62.6641 11.8906C62.3255 11.7135 62.0391 11.4531 61.8047 11.1094C61.5755 10.7604 61.401 10.3333 61.2812 9.82812C61.1667 9.31771 61.1094 8.73177 61.1094 8.07031ZM63.2969 7.50781V8.07031C63.2969 8.46615 63.3151 8.80729 63.3516 9.09375C63.3932 9.375 63.4583 9.60677 63.5469 9.78906C63.6406 9.96615 63.763 10.099 63.9141 10.1875C64.0651 10.2708 64.2526 10.3125 64.4766 10.3125C64.7682 10.3125 65.0052 10.2396 65.1875 10.0938C65.3698 9.94271 65.5052 9.73698 65.5938 9.47656C65.6875 9.21094 65.7396 8.90625 65.75 8.5625V7.08594C65.7396 6.79948 65.7057 6.54167 65.6484 6.3125C65.5911 6.08333 65.5104 5.88802 65.4062 5.72656C65.3021 5.5651 65.1719 5.4401 65.0156 5.35156C64.8646 5.26302 64.6875 5.21875 64.4844 5.21875C64.2656 5.21875 64.0781 5.26302 63.9219 5.35156C63.7708 5.4401 63.651 5.57812 63.5625 5.76562C63.474 5.94792 63.4062 6.1849 63.3594 6.47656C63.3177 6.76302 63.2969 7.10677 63.2969 7.50781Z" fill="white"/>
</svg>
