<svg width="630" height="630" viewBox="0 0 630 630" fill="none" xmlns="http://www.w3.org/2000/svg">
<rect width="630" height="630" fill="#F02D3A"/>
<path d="M138.223 231.739H120.791C116.168 231.739 111.734 233.576 108.465 236.845C105.196 240.114 103.359 244.548 103.359 249.171V371.192C103.359 375.815 105.196 380.249 108.465 383.518C111.734 386.787 116.168 388.624 120.791 388.624H138.223C140.534 388.624 142.751 387.706 144.386 386.071C146.02 384.437 146.938 382.22 146.938 379.908V240.455C146.938 238.143 146.02 235.926 144.386 234.292C142.751 232.657 140.534 231.739 138.223 231.739Z" fill="white"/>
<path d="M225.38 196.875H181.801C177.178 196.875 172.744 198.712 169.475 201.981C166.206 205.25 164.37 209.683 164.37 214.307V406.055C164.37 410.678 166.206 415.112 169.475 418.381C172.744 421.65 177.178 423.486 181.801 423.486H225.38C227.692 423.486 229.909 422.568 231.544 420.934C233.178 419.299 234.096 417.082 234.096 414.771V205.591C234.096 203.279 233.178 201.062 231.544 199.428C229.909 197.793 227.692 196.875 225.38 196.875Z" fill="white"/>
<path d="M504.287 231.739H486.855C484.544 231.739 482.327 232.657 480.692 234.292C479.058 235.926 478.139 238.143 478.139 240.455V379.908C478.139 382.22 479.058 384.437 480.692 386.071C482.327 387.706 484.544 388.624 486.855 388.624H504.287C508.91 388.624 513.344 386.787 516.613 383.518C519.882 380.249 521.718 375.815 521.718 371.192V249.171C521.718 244.548 519.882 240.114 516.613 236.845C513.344 233.576 508.91 231.739 504.287 231.739Z" fill="white"/>
<path d="M443.276 196.875H399.697C397.386 196.875 395.169 197.793 393.534 199.428C391.9 201.062 390.981 203.279 390.981 205.591V414.771C390.981 417.082 391.9 419.299 393.534 420.934C395.169 422.568 397.386 423.486 399.697 423.486H443.276C447.9 423.486 452.333 421.65 455.602 418.381C458.871 415.112 460.708 410.678 460.708 406.055V214.307C460.708 209.683 458.871 205.25 455.602 201.981C452.333 198.712 447.9 196.875 443.276 196.875Z" fill="white"/>
<path d="M364.834 284.034H260.245C255.431 284.034 251.529 287.936 251.529 292.75V327.613C251.529 332.427 255.431 336.329 260.245 336.329H364.834C369.648 336.329 373.55 332.427 373.55 327.613V292.75C373.55 287.936 369.648 284.034 364.834 284.034Z" fill="white"/>
</svg>
