<svg width="36" height="36" viewBox="0 0 36 36" fill="none" xmlns="http://www.w3.org/2000/svg">
<g id="Frame">
<path id="Vector" d="M9.57403 7.17658C9.09679 7.17717 8.63056 7.32002 8.23489 7.58687C7.83923 7.85372 7.5321 8.23246 7.35273 8.67471C7.17337 9.11696 7.12991 9.60265 7.22791 10.0697C7.32592 10.5368 7.56093 10.964 7.90293 11.2969L14.6061 18L7.90293 24.7031C7.6726 24.9243 7.4887 25.1892 7.36202 25.4823C7.23534 25.7754 7.16841 26.0908 7.16516 26.4101C7.16191 26.7294 7.22241 27.0462 7.3431 27.3418C7.4638 27.6374 7.64226 27.906 7.86805 28.1318C8.09384 28.3576 8.36241 28.536 8.65804 28.6567C8.95366 28.7774 9.2704 28.8379 9.5897 28.8347C9.90899 28.8314 10.2244 28.7645 10.5175 28.6378C10.8107 28.5111 11.0755 28.3272 11.2967 28.0969L17.9998 21.3938L24.7029 28.0969C24.9241 28.3272 25.189 28.5111 25.4821 28.6378C25.7752 28.7645 26.0906 28.8314 26.4099 28.8347C26.7292 28.8379 27.046 28.7774 27.3416 28.6567C27.6372 28.536 27.9058 28.3576 28.1316 28.1318C28.3574 27.906 28.5358 27.6374 28.6565 27.3418C28.7772 27.0462 28.8377 26.7294 28.8345 26.4101C28.8312 26.0908 28.7643 25.7754 28.6376 25.4823C28.5109 25.1892 28.327 24.9243 28.0967 24.7031L21.3936 18L28.0967 11.2969C28.4435 10.9598 28.6804 10.5258 28.7763 10.0517C28.8722 9.57767 28.8226 9.08571 28.6341 8.6403C28.4456 8.1949 28.127 7.81683 27.7199 7.55564C27.3128 7.29445 26.8364 7.16232 26.3529 7.17658C25.7294 7.19516 25.1376 7.45575 24.7029 7.90314L17.9998 14.6063L11.2967 7.90314C11.0728 7.67295 10.8049 7.49004 10.509 7.36524C10.2131 7.24044 9.89517 7.17629 9.57403 7.17658Z" fill="white"/>
</g>
</svg>
