<svg width="64" height="65" viewBox="0 0 64 65" fill="none" xmlns="http://www.w3.org/2000/svg">
<path d="M6.39993 10.2654C6.0607 10.2606 5.7239 10.3233 5.4091 10.4498C5.0943 10.5763 4.80778 10.7641 4.56619 11.0023C4.32461 11.2405 4.13277 11.5243 4.00183 11.8373C3.8709 12.1502 3.80347 12.4861 3.80347 12.8254C3.80347 13.1647 3.8709 13.5005 4.00183 13.8135C4.13277 14.1265 4.32461 14.4103 4.56619 14.6485C4.80778 14.8867 5.0943 15.0745 5.4091 15.201C5.7239 15.3275 6.0607 15.3902 6.39993 15.3854H57.5999C57.9392 15.3902 58.276 15.3275 58.5908 15.201C58.9056 15.0745 59.1921 14.8867 59.4337 14.6485C59.6753 14.4103 59.8671 14.1265 59.998 13.8135C60.129 13.5005 60.1964 13.1647 60.1964 12.8254C60.1964 12.4861 60.129 12.1502 59.998 11.8373C59.8671 11.5243 59.6753 11.2405 59.4337 11.0023C59.1921 10.7641 58.9056 10.5763 58.5908 10.4498C58.276 10.3233 57.9392 10.2606 57.5999 10.2654H6.39993ZM6.39993 29.4654C6.0607 29.4606 5.7239 29.5233 5.4091 29.6498C5.0943 29.7763 4.80778 29.9641 4.56619 30.2023C4.32461 30.4405 4.13277 30.7243 4.00183 31.0373C3.8709 31.3502 3.80347 31.6861 3.80347 32.0254C3.80347 32.3647 3.8709 32.7005 4.00183 33.0135C4.13277 33.3265 4.32461 33.6103 4.56619 33.8485C4.80778 34.0867 5.0943 34.2745 5.4091 34.401C5.7239 34.5275 6.0607 34.5902 6.39993 34.5854H57.5999C57.9392 34.5902 58.276 34.5275 58.5908 34.401C58.9056 34.2745 59.1921 34.0867 59.4337 33.8485C59.6753 33.6103 59.8671 33.3265 59.998 33.0135C60.129 32.7005 60.1964 32.3647 60.1964 32.0254C60.1964 31.6861 60.129 31.3502 59.998 31.0373C59.8671 30.7243 59.6753 30.4405 59.4337 30.2023C59.1921 29.9641 58.9056 29.7763 58.5908 29.6498C58.276 29.5233 57.9392 29.4606 57.5999 29.4654H6.39993ZM6.39993 48.6654C6.0607 48.6606 5.7239 48.7233 5.4091 48.8498C5.0943 48.9763 4.80778 49.1641 4.56619 49.4023C4.32461 49.6405 4.13277 49.9243 4.00183 50.2373C3.8709 50.5502 3.80347 50.8861 3.80347 51.2254C3.80347 51.5647 3.8709 51.9005 4.00183 52.2135C4.13277 52.5265 4.32461 52.8103 4.56619 53.0485C4.80778 53.2867 5.0943 53.4745 5.4091 53.601C5.7239 53.7275 6.0607 53.7902 6.39993 53.7854H57.5999C57.9392 53.7902 58.276 53.7275 58.5908 53.601C58.9056 53.4745 59.1921 53.2867 59.4337 53.0485C59.6753 52.8103 59.8671 52.5265 59.998 52.2135C60.129 51.9005 60.1964 51.5647 60.1964 51.2254C60.1964 50.8861 60.129 50.5502 59.998 50.2373C59.8671 49.9243 59.6753 49.6405 59.4337 49.4023C59.1921 49.1641 58.9056 48.9763 58.5908 48.8498C58.276 48.7233 57.9392 48.6606 57.5999 48.6654H6.39993Z" fill="white"/>
</svg>
