<svg width="74" height="74" viewBox="0 0 74 74" fill="none" xmlns="http://www.w3.org/2000/svg">
<g id="Group 1">
<rect id="Rectangle 5" width="74" height="74" fill="#F02D3A"/>
<g id="Group">
<path id="Vector" d="M19.5417 28.5417H17.7708C17.3012 28.5417 16.8508 28.7283 16.5187 29.0604C16.1866 29.3924 16 29.8429 16 30.3125V42.7084C16 43.178 16.1866 43.6284 16.5187 43.9605C16.8508 44.2926 17.3012 44.4792 17.7708 44.4792H19.5417C19.7765 44.4792 20.0017 44.3859 20.1678 44.2199C20.3338 44.0538 20.4271 43.8286 20.4271 43.5938V29.4271C20.4271 29.1923 20.3338 28.9671 20.1678 28.801C20.0017 28.635 19.7765 28.5417 19.5417 28.5417Z" fill="white"/>
<path id="Vector_2" d="M28.3959 25H23.9688C23.4992 25 23.0488 25.1866 22.7167 25.5187C22.3846 25.8508 22.198 26.3012 22.198 26.7708V46.25C22.198 46.7197 22.3846 47.1701 22.7167 47.5022C23.0488 47.8343 23.4992 48.0208 23.9688 48.0208H28.3959C28.6307 48.0208 28.856 47.9275 29.022 47.7615C29.188 47.5955 29.2813 47.3702 29.2813 47.1354V25.8854C29.2813 25.6506 29.188 25.4254 29.022 25.2593C28.856 25.0933 28.6307 25 28.3959 25Z" fill="white"/>
<path id="Vector_3" d="M56.7292 28.5417H54.9584C54.7236 28.5417 54.4984 28.635 54.3323 28.801C54.1663 28.9671 54.073 29.1923 54.073 29.4271V43.5938C54.073 43.8286 54.1663 44.0538 54.3323 44.2199C54.4984 44.3859 54.7236 44.4792 54.9584 44.4792H56.7292C57.1989 44.4792 57.6493 44.2926 57.9814 43.9605C58.3135 43.6284 58.5001 43.178 58.5001 42.7084V30.3125C58.5001 29.8429 58.3135 29.3924 57.9814 29.0604C57.6493 28.7283 57.1989 28.5417 56.7292 28.5417Z" fill="white"/>
<path id="Vector_4" d="M50.5312 25H46.1042C45.8693 25 45.6441 25.0933 45.4781 25.2593C45.312 25.4254 45.2188 25.6506 45.2188 25.8854V47.1354C45.2188 47.3702 45.312 47.5955 45.4781 47.7615C45.6441 47.9275 45.8693 48.0208 46.1042 48.0208H50.5312C51.0009 48.0208 51.4513 47.8343 51.7834 47.5022C52.1155 47.1701 52.3021 46.7197 52.3021 46.25V26.7708C52.3021 26.3012 52.1155 25.8508 51.7834 25.5187C51.4513 25.1866 51.0009 25 50.5312 25Z" fill="white"/>
<path id="Vector_5" d="M42.5624 33.8542H31.9374C31.4484 33.8542 31.052 34.2506 31.052 34.7396V38.2813C31.052 38.7703 31.4484 39.1667 31.9374 39.1667H42.5624C43.0514 39.1667 43.4478 38.7703 43.4478 38.2813V34.7396C43.4478 34.2506 43.0514 33.8542 42.5624 33.8542Z" fill="white"/>
</g>
</g>
</svg>
