<svg width="32" height="32" viewBox="0 0 32 32" fill="none" xmlns="http://www.w3.org/2000/svg">
<rect width="32" height="32" fill="#F02D3A"/>
<path d="M7.02083 11.7709H6.13542C5.90059 11.7709 5.67538 11.8642 5.50933 12.0302C5.34328 12.1963 5.25 12.4215 5.25 12.6563V18.8542C5.25 19.089 5.34328 19.3142 5.50933 19.4803C5.67538 19.6463 5.90059 19.7396 6.13542 19.7396H7.02083C7.13825 19.7396 7.25085 19.693 7.33388 19.61C7.4169 19.5269 7.46354 19.4143 7.46354 19.2969V12.2136C7.46354 12.0962 7.4169 11.9836 7.33388 11.9005C7.25085 11.8175 7.13825 11.7709 7.02083 11.7709Z" fill="white"/>
<path d="M11.4479 10H9.23435C8.99953 10 8.77432 10.0933 8.60827 10.2593C8.44222 10.4254 8.34894 10.6506 8.34894 10.8854V20.625C8.34894 20.8598 8.44222 21.085 8.60827 21.2511C8.77432 21.4171 8.99953 21.5104 9.23435 21.5104H11.4479C11.5653 21.5104 11.6779 21.4638 11.7609 21.3808C11.844 21.2977 11.8906 21.1851 11.8906 21.0677V10.4427C11.8906 10.3253 11.844 10.2127 11.7609 10.1297C11.6779 10.0466 11.5653 10 11.4479 10Z" fill="white"/>
<path d="M25.6146 11.7709H24.7291C24.6117 11.7709 24.4991 11.8175 24.4161 11.9005C24.3331 11.9836 24.2864 12.0962 24.2864 12.2136V19.2969C24.2864 19.4143 24.3331 19.5269 24.4161 19.61C24.4991 19.693 24.6117 19.7396 24.7291 19.7396H25.6146C25.8494 19.7396 26.0746 19.6463 26.2406 19.4803C26.4067 19.3142 26.5 19.089 26.5 18.8542V12.6563C26.5 12.4215 26.4067 12.1963 26.2406 12.0302C26.0746 11.8642 25.8494 11.7709 25.6146 11.7709Z" fill="white"/>
<path d="M22.5156 10H20.3021C20.1847 10 20.0721 10.0466 19.989 10.1297C19.906 10.2127 19.8594 10.3253 19.8594 10.4427V21.0677C19.8594 21.1851 19.906 21.2977 19.989 21.3808C20.0721 21.4638 20.1847 21.5104 20.3021 21.5104H22.5156C22.7505 21.5104 22.9757 21.4171 23.1417 21.2511C23.3078 21.085 23.401 20.8598 23.401 20.625V10.8854C23.401 10.6506 23.3078 10.4254 23.1417 10.2593C22.9757 10.0933 22.7505 10 22.5156 10Z" fill="white"/>
<path d="M18.5313 14.4271H13.2188C12.9743 14.4271 12.7761 14.6253 12.7761 14.8698V16.6407C12.7761 16.8852 12.9743 17.0834 13.2188 17.0834H18.5313C18.7758 17.0834 18.974 16.8852 18.974 16.6407V14.8698C18.974 14.6253 18.7758 14.4271 18.5313 14.4271Z" fill="white"/>
</svg>
